<svg xmlns="http://www.w3.org/2000/svg" viewBox="0 0 400 300" width="100%" height="100%" fill="none">
  <defs>
    <linearGradient id="sup_blue" x1="0%" y1="0%" x2="100%" y2="100%">
      <stop offset="0%" stop-color="#2563EB"/>
      <stop offset="100%" stop-color="#1D4ED8"/>
    </linearGradient>
    <linearGradient id="sup_cyan" x1="0%" y1="0%" x2="100%" y2="100%">
      <stop offset="0%" stop-color="#38BDF8"/>
      <stop offset="100%" stop-color="#0EA5E9"/>
    </linearGradient>
  </defs>

  <circle cx="200" cy="150" r="110" fill="#2563EB" fill-opacity="0.04"/>

  <g transform="translate(110, 45)">
    <!-- Central Shield & Lifebuoy Anchor -->
    <!-- Large Verification Shield -->
    <path d="M 90 20 L 160 50 V 105 C 160 150 125 185 90 200 C 55 185 20 150 20 105 V 50 Z" fill="#FFFFFF" stroke="#E2E8F0" stroke-width="2"/>
    <path d="M 90 32 L 148 58 V 105 C 148 143 118 174 90 187 C 62 174 32 143 32 105 V 58 Z" fill="#F8FAFC"/>

    <!-- Central Lifebuoy / Support Ring -->
    <circle cx="90" cy="110" r="36" fill="url(#sup_blue)"/>
    <circle cx="90" cy="110" r="18" fill="#FFFFFF"/>
    <line x1="64" y1="84" x2="77" y2="97" stroke="#FFFFFF" stroke-width="3" stroke-linecap="round"/>
    <line x1="116" y1="136" x2="103" y2="123" stroke="#FFFFFF" stroke-width="3" stroke-linecap="round"/>
    <line x1="116" y1="84" x2="103" y2="97" stroke="#FFFFFF" stroke-width="3" stroke-linecap="round"/>
    <line x1="64" y1="136" x2="77" y2="123" stroke="#FFFFFF" stroke-width="3" stroke-linecap="round"/>

    <!-- Floating Live Assistance Dialog Bubble (Top Right) -->
    <g transform="translate(110, 10)">
      <rect x="0" y="0" width="70" height="38" rx="8" fill="#0F172A" stroke="#334155" stroke-width="1.5"/>
      <polygon points="12 38 12 46 22 38" fill="#0F172A"/>
      <circle cx="18" cy="19" r="4" fill="#10B981"/>
      <line x1="30" y1="16" x2="56" y2="16" stroke="#FFFFFF" stroke-width="2" stroke-linecap="round"/>
      <line x1="30" y1="23" x2="48" y2="23" stroke="#94A3B8" stroke-width="2" stroke-linecap="round"/>
    </g>

    <!-- 24/7 Verified Pulse Badge (Bottom Left) -->
    <g transform="translate(-15, 130)">
      <rect x="0" y="0" width="64" height="28" rx="14" fill="#FFFFFF" stroke="#E2E8F0" stroke-width="1.5"/>
      <circle cx="14" cy="14" r="5" fill="url(#sup_cyan)"/>
      <line x1="26" y1="14" x2="50" y2="14" stroke="#2563EB" stroke-width="2.5" stroke-linecap="round"/>
    </g>
  </g>
</svg>